<?xml version="1.0" encoding="utf-8"?>
<!-- Generator: Adobe Illustrator 21.0.0, SVG Export Plug-In . SVG Version: 6.00 Build 0)  -->
<svg version="1.2" baseProfile="tiny" id="Layer_1" xmlns="http://www.w3.org/2000/svg" xmlns:xlink="http://www.w3.org/1999/xlink"
	 x="0px" y="0px" viewBox="0 0 1063 1063" xml:space="preserve">
<g>
	<g>
		<path fill="#FFFFFF" d="M504.04,11.32c15.46-1.3,30.98-0.7,46.47-0.78c76.25,2.11,151.98,21.43,219.91,56.15
			c35.42,18,68.72,40.17,99.06,65.82c51.02,43.59,93.86,96.89,124.72,156.52c47.34,90.49,66.69,195.28,55,296.72
			c-9.77,87.69-42.68,172.63-94.34,244.14c-21.21,29.3-45.31,56.53-72.02,80.92c-60,54.45-132.99,94.43-211.18,115.68
			c-38.51,10.51-78.25,16.49-118.14,17.91c-12.01,0.16-24.03,0.15-36.04,0c-53.38-1.88-106.48-12.01-156.75-30.08
			c-56.65-20.31-109.72-50.6-155.96-89.11C144.42,875.09,95.72,811.04,63.66,739.43C32.68,670.62,17.22,594.93,18.5,519.5
			c0.52-50.5,8.9-100.87,24.16-148.99c21.78-68.49,58.01-132.35,105.74-186.09c38.55-43.5,84.46-80.48,135.28-108.73
			C351.07,38.08,427,15.8,504.04,11.32z M520.9,31.07c-14.67,2.75-28.34,10.46-38.15,21.72c-11.11,12.42-17.09,29.13-16.91,45.74
			c0.34,14.98,5.53,29.91,15.08,41.52c11.32,14.13,28.56,23.37,46.64,24.73c16.3,1.53,33.12-3.13,46.19-13.03
			c12.46-9.16,21.47-22.81,25.22-37.79c3.5-14.82,2.32-30.91-4.18-44.76c-6.91-15.15-19.65-27.52-35.02-33.95
			C547.62,29.95,533.9,28.79,520.9,31.07z M523.13,180.13c-54.59,54.6-109.2,109.19-163.78,163.8c-3.02-2.42-5.65-5.44-7.04-9.09
			c21.88-11.41,36.33-35.61,35.74-60.32c-0.17-17.41-7.21-34.7-19.61-46.96c-13.17-13.44-32.21-20.81-50.99-19.93
			c-16.26,0.77-32.25,7.54-43.9,18.97c-11.51,10.94-18.77,26.17-20.23,41.97c-0.46,0.31-1.4,0.94-1.86,1.25
			c-23.99-6.93-48.97-10.55-73.95-10.15c-4.25-0.01-8.53,0.11-12.71,0.99c-38.98,52.43-71.15,110.58-89.72,173.44
			c-13.53,45.51-19.65,93.32-17.04,140.76c2.26,43.69,11.79,86.9,27.26,127.79c14.23,37.79,33.37,73.66,56.07,107.03
			c21.09,30.93,45.15,59.85,71.91,86.04c12.21,11.88,24.91,23.35,38.76,33.3c2.73,1.82,5.74,4.64,9.29,3.27
			c18.2-4.56,35.67-11.61,52.74-19.3c32.14-14.78,62.87-32.65,91.57-53.34c12.96-9.82,26.9-19.23,35.8-33.19
			c7.53-11.12,11.32-24.58,11.01-37.98c-0.51-16.55-6.19-32.47-13.86-46.98c-8.8-16.57-20.03-31.73-32.14-46.01
			c-2.13-2.56-4.2-5.24-6.96-7.16c-0.18-43.99-0.13-88-0.02-131.99c8.56,14.02,22.01,24.22,36.35,31.81
			c16.52,9.1,34.63,14.62,52.52,20.3c-0.38,24.01-0.06,48.03-0.16,72.05c0.08,31.4-0.17,62.8,0.12,94.2
			c29.39,0.22,58.79,0.19,88.18,0.01c0.1-48.14-0.02-96.28,0.06-144.42c8.13,0.73,16.08,2.7,24.15,3.91
			c22.12,3.97,44.29,7.87,66.13,13.23c0.06,42.3,0.13,84.61-0.04,126.91c29.53,0.37,59.08,0.15,88.62,0.11
			c0.17-32.08,0.07-64.15,0.17-96.23c5.61,2.03,10.49,5.56,15.55,8.66c22.02,14.19,40.67,34.84,49.04,59.98
			c5.78,17.54,5.67,36.57,2.27,54.58c-6.91,34.41-24,65.76-43.39,94.64c-22.17,32.48-48.04,62.34-76.26,89.7
			c-6.37,6.67-13.82,12.2-20.34,18.69c17.6-4.34,34.35-11.58,50.69-19.33c33.61-16.48,64.83-37.57,93.68-61.36
			c28.67-23.86,55.06-50.52,78.38-79.64c48.31-60.12,83.45-131.55,97.14-207.71c10.02-55.6,8.55-113.16-3.46-168.33
			c-12.79-59.4-37.16-115.84-68.14-167.95c-7.05-11.2-13.07-23.94-24.58-31.31c-10.06-6.51-22.78-6.29-34.06-3.7
			c-20,4.71-39.83,10.18-59.73,15.3c-0.55-3.67,0.25-7.44-0.62-11.06c-1.38-20.47-12.8-39.96-29.99-51.16
			c-15.08-10.23-34.38-13.48-52.1-9.61c-15.88,3.5-30.33,13.03-39.87,26.18c-7.81,10.58-12.13,23.53-12.88,36.62
			c-0.78,18.4,6.05,37.14,19.08,50.27c-1.46,2.82-4.83,3.23-7.53,4.19c-25.88-25.9-51.92-51.63-77.81-77.52
			c-12.41-12.26-24.48-24.86-37.19-36.8c-13.64-13.54-27.04-27.34-40.87-40.68C529.28,173.79,526.28,177.04,523.13,180.13z"/>
	</g>
	<path fill="#FFFFFF" d="M401.45,428.42c29.19-28.82,57.75-58.27,87.02-86.99c0.21,29.02-0.09,58.05-0.01,87.07
		c-15.77,10.71-31.48,21.58-45.92,34.06c-17.03,14.47-33.02,30.9-43.04,51.12c-0.27-26.41-0.01-52.83-0.14-79.24
		C399.21,432.19,399.55,429.86,401.45,428.42z"/>
	<path fill="#FFFFFF" d="M576.53,341.43c8.24,7.89,16.21,16.07,24.25,24.17c-7.82,4.57-15.97,8.65-24.32,12.14
		C576.4,365.64,576.24,353.53,576.53,341.43z"/>
	<path fill="#FFFFFF" d="M286.27,544.27c7.78-7.74,15.08-16,23.4-23.15c0.41,27.5,0.17,55.02,0.12,82.52
		c-4.65-3.06-8.74-6.87-13.02-10.41c-4.32-3.64-8.97-7.08-12.09-11.89c-5.34-7.66-8.18-16.74-9.42-25.92
		C278.82,551.59,282.57,547.96,286.27,544.27z"/>
</g>
<g>
	<path fill="#E11E3A" d="M520.9,31.07c13-2.28,26.72-1.12,38.87,4.18c15.37,6.43,28.11,18.8,35.02,33.95
		c6.5,13.85,7.68,29.94,4.18,44.76c-3.75,14.98-12.76,28.63-25.22,37.79c-13.07,9.9-29.89,14.56-46.19,13.03
		c-18.08-1.36-35.32-10.6-46.64-24.73c-9.55-11.61-14.74-26.54-15.08-41.52c-0.18-16.61,5.8-33.32,16.91-45.74
		C492.56,41.53,506.23,33.82,520.9,31.07z"/>
	<path fill="#E11E3A" d="M523.13,180.13c3.15-3.09,6.15-6.34,9.45-9.26c13.83,13.34,27.23,27.14,40.87,40.68
		c12.71,11.94,24.78,24.54,37.19,36.8c25.89,25.89,51.93,51.62,77.81,77.52c26.05,25.51,51.61,51.5,77.51,77.15
		c23.74,22.93,46.56,46.79,70.29,69.72c17.79,17.88,35.68,35.66,53.49,53.52c3.19,3.32,6.94,6.14,9.66,9.91
		c-18.15,17.25-35.84,34.98-53.97,52.26c-3.6,3.44-6.91,7.19-10.84,10.26c-8.64-7.77-16.49-16.37-24.84-24.45
		c-18.13-17.78-36.04-35.79-54.07-53.68c-0.22,52.55,0,105.11-0.11,157.66c-0.1,32.08,0,64.15-0.17,96.23
		c-29.54,0.04-59.09,0.26-88.62-0.11c0.17-42.3,0.1-84.61,0.04-126.91c-0.12-67.31-0.02-134.62-0.05-201.93
		c-0.08-4.33,0.27-8.67-0.18-12.98c-0.1-1.32-1.25-2.18-2.01-3.13c-21.31-21.22-42.57-42.49-63.8-63.79
		c-8.04-8.1-16.01-16.28-24.25-24.17c-0.29,12.1-0.13,24.21-0.07,36.31c0.26,84.19,0.12,168.37,0.08,252.55
		c-0.08,48.14,0.04,96.28-0.06,144.42c-29.39,0.18-58.79,0.21-88.18-0.01c-0.29-31.4-0.04-62.8-0.12-94.2
		c0.1-24.02-0.22-48.04,0.16-72.05c0.19-59.98-0.04-119.97,0.12-179.95c-0.08-29.02,0.22-58.05,0.01-87.07
		c-29.27,28.72-57.83,58.17-87.02,86.99c-1.9,1.44-2.24,3.77-2.09,6.02c0.13,26.41-0.13,52.83,0.14,79.24
		c-0.07,14.22,0,28.44-0.03,42.66c-0.11,43.99-0.16,88,0.02,131.99c-0.07,28.72,0.05,57.44-0.05,86.17
		c-29.95,0.28-59.91-0.12-89.86,0.25c-0.16-57.04-0.06-114.07,0.21-171.11c0.05-27.5,0.29-55.02-0.12-82.52
		c-8.32,7.15-15.62,15.41-23.4,23.15c-3.7,3.69-7.45,7.32-11.01,11.15c-12.41,12.53-24.95,24.94-37.39,37.45
		c-2.21,2.3-4.46,4.59-7.01,6.54c-20.04-20.04-39.7-40.45-59.76-60.48c-1.01-1.06-2.01-2.15-2.71-3.43c0.56-1.1,1.38-2.03,2.22-2.9
		c51.75-51.92,103.65-103.68,155.46-155.53c11.1-11.04,22.05-22.23,33.28-33.14C413.93,289.32,468.54,234.73,523.13,180.13z"/>
	<path fill="#E11E3A" d="M273.55,226.6c11.65-11.43,27.64-18.2,43.9-18.97c18.78-0.88,37.82,6.49,50.99,19.93
		c12.4,12.26,19.44,29.55,19.61,46.96c0.59,24.71-13.86,48.91-35.74,60.32c-12.78,7.37-28.13,9.24-42.59,7.24
		c-19.57-3.03-37.42-15.23-47.48-32.26c-7.12-12.36-10.87-27.01-8.92-41.25C254.78,252.77,262.04,237.54,273.55,226.6z"/>
	<path fill="#E11E3A" d="M729.65,208.61c17.72-3.87,37.02-0.62,52.1,9.61c17.19,11.2,28.61,30.69,29.99,51.16
		c0.05,7.53,0.31,15.21-1.86,22.51c-3.67,14.01-11.97,26.74-23.34,35.72c-12.61,10.11-28.98,15.43-45.12,14.63
		c-17.01-0.72-33.83-8.03-45.44-20.56c-13.03-13.13-19.86-31.87-19.08-50.27c0.75-13.09,5.07-26.04,12.88-36.62
		C699.32,221.64,713.77,212.11,729.65,208.61z"/>
</g>
<g>
	<path fill="#FDCC99" d="M164.8,260.66c4.18-0.88,8.46-1,12.71-0.99c24.98-0.4,49.96,3.22,73.95,10.15c0.46-0.31,1.4-0.94,1.86-1.25
		c-1.95,14.24,1.8,28.89,8.92,41.25c10.06,17.03,27.91,29.23,47.48,32.26c14.46,2,29.81,0.13,42.59-7.24
		c1.39,3.65,4.02,6.67,7.04,9.09c-11.23,10.91-22.18,22.1-33.28,33.14c-51.81,51.85-103.71,103.61-155.46,155.53
		c-0.84,0.87-1.66,1.8-2.22,2.9c0.7,1.28,1.7,2.37,2.71,3.43c20.06,20.03,39.72,40.44,59.76,60.48c2.55-1.95,4.8-4.24,7.01-6.54
		c12.44-12.51,24.98-24.92,37.39-37.45c1.24,9.18,4.08,18.26,9.42,25.92c3.12,4.81,7.77,8.25,12.09,11.89
		c4.28,3.54,8.37,7.35,13.02,10.41c-0.27,57.04-0.37,114.07-0.21,171.11c29.95-0.37,59.91,0.03,89.86-0.25
		c0.1-28.73-0.02-57.45,0.05-86.17c2.76,1.92,4.83,4.6,6.96,7.16c12.11,14.28,23.34,29.44,32.14,46.01
		c7.67,14.51,13.35,30.43,13.86,46.98c0.31,13.4-3.48,26.86-11.01,37.98c-8.9,13.96-22.84,23.37-35.8,33.19
		c-28.7,20.69-59.43,38.56-91.57,53.34c-17.07,7.69-34.54,14.74-52.74,19.3c-3.55,1.37-6.56-1.45-9.29-3.27
		c-13.85-9.95-26.55-21.42-38.76-33.3c-26.76-26.19-50.82-55.11-71.91-86.04c-22.7-33.37-41.84-69.24-56.07-107.03
		c-15.47-40.89-25-84.1-27.26-127.79c-2.61-47.44,3.51-95.25,17.04-140.76C93.65,371.24,125.82,313.09,164.8,260.66z"/>
	<path fill="#FDCC99" d="M872.09,265.14c11.28-2.59,24-2.81,34.06,3.7c11.51,7.37,17.53,20.11,24.58,31.31
		c30.98,52.11,55.35,108.55,68.14,167.95c12.01,55.17,13.48,112.73,3.46,168.33c-13.69,76.16-48.83,147.59-97.14,207.71
		c-23.32,29.12-49.71,55.78-78.38,79.64c-28.85,23.79-60.07,44.88-93.68,61.36c-16.34,7.75-33.09,14.99-50.69,19.33
		c6.52-6.49,13.97-12.02,20.34-18.69c28.22-27.36,54.09-57.22,76.26-89.7c19.39-28.88,36.48-60.23,43.39-94.64
		c3.4-18.01,3.51-37.04-2.27-54.58c-8.37-25.14-27.02-45.79-49.04-59.98c-5.06-3.1-9.94-6.63-15.55-8.66
		c0.11-52.55-0.11-105.11,0.11-157.66c18.03,17.89,35.94,35.9,54.07,53.68c8.35,8.08,16.2,16.68,24.84,24.45
		c3.93-3.07,7.24-6.82,10.84-10.26c18.13-17.28,35.82-35.01,53.97-52.26c-2.72-3.77-6.47-6.59-9.66-9.91
		c-17.81-17.86-35.7-35.64-53.49-53.52c-23.73-22.93-46.55-46.79-70.29-69.72c-25.9-25.65-51.46-51.64-77.51-77.15
		c2.7-0.96,6.07-1.37,7.53-4.19c11.61,12.53,28.43,19.84,45.44,20.56c16.14,0.8,32.51-4.52,45.12-14.63
		c11.37-8.98,19.67-21.71,23.34-35.72c2.17-7.3,1.91-14.98,1.86-22.51c0.87,3.62,0.07,7.39,0.62,11.06
		C832.26,275.32,852.09,269.85,872.09,265.14z"/>
	<path fill="#FDCC99" d="M600.78,365.6c21.23,21.3,42.49,42.57,63.8,63.79c0.76,0.95,1.91,1.81,2.01,3.13
		c0.45,4.31,0.1,8.65,0.18,12.98c0.03,67.31-0.07,134.62,0.05,201.93c-21.84-5.36-44.01-9.26-66.13-13.23
		c-8.07-1.21-16.02-3.18-24.15-3.91c0.04-84.18,0.18-168.36-0.08-252.55C584.81,374.25,592.96,370.17,600.78,365.6z"/>
	<path fill="#FDCC99" d="M442.54,462.56c14.44-12.48,30.15-23.35,45.92-34.06c-0.16,59.98,0.07,119.97-0.12,179.95
		c-17.89-5.68-36-11.2-52.52-20.3c-14.34-7.59-27.79-17.79-36.35-31.81c0.03-14.22-0.04-28.44,0.03-42.66
		C409.52,493.46,425.51,477.03,442.54,462.56z"/>
</g>
</svg>
